# xmcd
#
# Track frame offsets: 
#        182
#        33702
#        66392
#        96352
#        113632
#        143435
#        161367
#        177262
#        189367
#        211172
#        223872
#        241732
#
# Disc length: 3460 seconds
#
# Revision: 12
# Processed by: cddbd v1.5.2PL0 Copyright (c) Steve Scherf et al.
# Submitted via: ExactAudioCopy v1.0b1
#
DISCID=a50d820c
DTITLE=The Cure - Paris
DYEAR=1993
DGENRE=Alternative
TTITLE0=The Figurehead
TTITLE1=One Hundred Years
TTITLE2=At Night
TTITLE3=Play For Today
TTITLE4=Apart
TTITLE5=In Your House
TTITLE6=Lovesong
TTITLE7=Catch
TTITLE8=A Letter to Elise
TTITLE9=Dressing Up
TTITLE10=Charlotte Sometimes
TTITLE11=Close To Me
EXTD=
EXTT0=
EXTT1=
EXTT2=
EXTT3=
EXTT4=
EXTT5=
EXTT6=
EXTT7=
EXTT8=
EXTT9=
EXTT10=
EXTT11=
PLAYORDER=
